<svg xmlns="http://www.w3.org/2000/svg"
shape-rendering="geometricPrecision"
width="4000" height="4000" viewBox="0 0 1024 1024">
  <metadata>null</metadata>

<path d="
M 46.468 719.611
C 46.922 716.062 47.149 712.637 48.129 709.165
C 50.355 701.279 54.985 693.74 61.004 688.204
C 77.328 673.191 107.04 673.677 122.031 690.174
C 127.586 696.288 131.439 704.387 132.59 712.579
C 133.357 718.043 133.037 723.657 132.802 729.134
C 117.574 729.688 102.239 729.119 86.998 729.198
C 82.832 729.219 78.666 729.246 74.5 729.248
C 72.062 729.249 69.471 729.002 67.09 729.592
C 69.068 735.207 71.293 740.398 76.121 744.195
C 87.317 752.999 107.79 751.164 115.921 739.047
C 117.533 739.896 118.664 741.436 120.076 742.576
C 123.184 745.083 126.427 747.456 129.43 750.084
C 123.418 757.049 115.696 762.464 106.778 764.989
C 88.073 770.286 64.854 764.674 53.637 747.927
C 51.081 744.111 49.27 739.873 48.092 735.443
C 46.733 730.331 46.065 724.905 46.468 719.611 Z
M 67.359 713.559
C 67.219 714.283 67.126 715.011 67.053 715.745
C 68.576 716.161 70.43 715.872 72.003 715.858
C 75.17 715.831 78.338 715.851 81.505 715.833
C 92.077 715.773 102.729 715.455 113.295 715.838
C 112.211 709.294 109.726 703.152 104.497 698.773
C 96.85 692.368 83.367 693.35 75.84 699.453
C 71.168 703.241 69.254 708.09 67.359 713.559 Z"
opacity="1" fill="rgb(60,127,185)" fill-rule="evenodd" />
<path d="
M 69.495 549.566
C 81.844 541.541 95.976 538.451 110.321 536.032
C 121.754 534.104 133.049 532.816 144.652 533.795
C 148.941 534.158 152.945 535.184 157.116 536.111
C 159.341 536.606 161.737 536.807 163.786 537.86
C 165.995 538.995 168.438 539.996 168.814 542.745
C 146.03 541.983 122.713 540.445 99.989 542.888
C 92.951 543.645 85.927 544.929 79.115 546.905
C 77.427 547.394 75.653 547.786 74.012 548.413
C 72.587 548.957 70.825 550.167 69.259 549.997
C 69.338 549.853 69.416 549.71 69.495 549.566 Z"
opacity="1" fill="rgb(54,122,174)" fill-rule="evenodd" />
<path d="
M 75.292 529.109
C 77.11 527.607 79.302 526.615 81.339 525.448
C 86.66 522.399 92.201 519.745 97.712 517.057
C 119.417 506.471 142.261 498.172 165.847 492.939
C 194.406 486.603 223.426 482.16 252.731 481.866
C 274.67 481.646 296.823 484.143 318.382 488.089
C 355.102 494.812 389.783 508.104 425.276 519.196
C 450.778 527.165 476.47 534.132 502.648 539.54
C 542.473 547.768 583.697 551.266 624.319 551.06
C 637.163 550.995 649.999 550.405 662.809 549.545
C 668.169 549.186 673.508 548.844 678.874 548.6
C 680.866 548.509 682.802 548.025 684.82 548.062
C 685.28 548.46 683.23 548.722 682.951 548.773
C 680.83 549.159 678.698 549.466 676.57 549.816
C 671.227 550.694 665.951 551.9 660.583 552.636
C 644.353 554.86 628.215 556.933 611.844 557.783
C 596.638 558.572 581.5 559.495 566.245 559.279
C 532.344 558.8 498.41 555.061 465.228 548.037
C 437.282 542.122 410.04 533.552 382.718 525.316
C 365.427 520.103 348.117 514.259 330.427 510.502
C 297.687 503.55 263.968 499.568 230.441 500.453
C 211.104 500.964 191.641 502.132 172.481 504.84
C 154.728 507.349 137.308 511.304 119.869 515.37
C 109.286 517.837 98.757 520.886 88.566 524.652
C 85.524 525.777 82.481 526.898 79.423 527.979
C 78.249 528.394 76.553 529.434 75.292 529.109 Z"
opacity="1" fill="rgb(56,124,180)" fill-rule="evenodd" />
<path d="
M 111.753 565.415
C 114.562 564.321 117.956 564.006 120.929 563.537
C 125.438 562.826 129.92 562.103 134.461 561.583
C 144.577 560.425 154.763 558.54 164.974 559.994
C 169.447 560.631 174.397 561.962 178.21 564.428
C 179.301 565.133 180.924 565.794 181.536 567
C 180.656 567.639 178.437 567.659 177.334 567.756
C 173.956 568.054 170.534 568.127 167.144 568.158
C 153.917 568.277 140.803 567.006 127.609 566.423
C 123.745 566.252 119.863 566.289 115.996 566.28
C 114.662 566.277 112.448 566.646 111.753 565.415 Z"
opacity="1" fill="rgb(54,123,175)" fill-rule="evenodd" />
<path d="
M 146.479 738.098
C 146.98 734.583 147.661 731.64 149.252 728.423
C 156.5 713.761 176.676 713.977 190.688 713.822
C 193.46 713.791 196.231 713.75 199.003 713.714
C 200.39 713.696 202.064 713.874 203.393 713.44
C 203.45 710.924 203.431 708.201 202.698 705.772
C 199.039 693.659 183.392 694.421 173.508 696.952
C 171.642 697.43 169.766 697.954 167.937 698.559
C 165.336 699.417 162.804 700.685 160.37 701.931
C 159.357 702.45 158.079 703.65 156.921 703.687
C 154.779 698.507 153.324 693.014 151.106 687.826
C 151.824 686.565 154.323 685.769 155.596 685.137
C 160.13 682.885 164.934 681.137 169.833 679.872
C 186.234 675.638 210.265 675.645 219.734 692.603
C 221.413 695.61 222.552 698.789 223.245 702.161
C 225.288 712.093 224.232 722.919 224.25 733.006
C 224.255 735.793 224.254 738.583 224.307 741.37
C 224.327 742.431 224.222 743.952 224.943 744.791
C 226.335 745.688 228.015 745.772 229.491 746.466
C 229.224 750.268 229.37 754.19 229.361 758.004
C 229.356 760.472 229.122 763.008 229.412 765.463
C 229.232 765.783 228.147 765.679 227.817 765.702
C 225.841 765.838 223.861 765.785 221.88 765.773
C 215.675 765.734 209.4 764.849 206.237 758.749
C 205.533 757.391 205.141 755.835 204.82 754.35
C 204.534 754.207 204.038 755.086 203.809 755.361
C 202.786 756.59 201.541 757.699 200.348 758.761
C 197.222 761.543 193.667 763.702 189.692 765.047
C 173.401 770.563 151.565 765.341 146.978 746.898
C 146.306 744.197 146.2 740.858 146.479 738.098 Z
M 166.485 738.625
C 166.465 740.178 166.582 741.973 167.091 743.448
C 168.34 747.067 171.532 749.251 175.003 750.455
C 180.958 752.52 188.222 752.156 193.789 749.12
C 197.509 747.091 201.366 744.01 202.671 739.789
C 203.907 735.791 203.2 731.398 203.473 727.301
C 202.678 726.882 201.394 727.108 200.498 727.111
C 198.053 727.12 195.608 727.184 193.164 727.186
C 184.279 727.196 171.458 725.908 167.061 735.64
C 166.625 736.606 166.632 737.598 166.485 738.625 Z"
opacity="1" fill="rgb(60,126,185)" fill-rule="evenodd" />
<path d="
M 181.972 531.095
C 183.014 525.366 184.426 519.69 186.538 514.249
C 187.163 512.639 187.589 509.885 188.732 508.621
C 192.005 508.439 195.212 507.414 198.478 507.257
C 194.939 517.247 191.293 527.811 192.22 538.56
C 192.518 542.018 193.477 545.307 194.582 548.58
C 195.868 552.389 197.857 556.322 200.735 559.187
C 205.832 564.262 212.931 567.437 219.465 570.224
C 226.619 573.275 234.178 574.869 241.735 576.53
C 243.574 576.935 245.485 577.586 247.347 577.757
C 248.066 577.822 249.117 577.771 249.418 578.515
C 248.541 579.299 245.09 578.482 243.923 578.45
C 237.993 578.29 232.387 577.768 226.517 576.878
C 217.716 575.543 208.079 574.026 200.198 569.659
C 186.696 562.178 180.263 546.121 181.972 531.095 Z"
opacity="1" fill="rgb(50,119,175)" fill-rule="evenodd" />
<path d="
M 188.735 448.705
C 198.951 447.851 209.4 449.157 219.671 448.635
C 244.68 447.366 269.252 443.556 293.306 436.48
C 318.628 429.031 343.4 419.776 368.647 412.088
C 376.501 409.697 384.427 407.521 392.369 405.433
C 395.764 404.54 399.784 402.935 403.303 402.866
C 402.139 397.917 399.983 392.895 398.375 388.044
C 394.811 377.298 391.443 366.471 387.695 355.788
C 384.696 347.24 380.974 338.242 386.585 329.879
C 391.066 323.2 400.107 321.439 407.273 319.051
C 422.298 314.043 437.228 308.754 452.222 303.65
C 508.13 284.617 563.766 264.787 619.609 245.565
C 633.537 240.77 647.345 235.632 661.348 231.05
C 668.301 228.775 675.483 225.156 682.937 227.576
C 691.494 230.355 694.173 237.536 696.839 245.297
C 698.771 250.922 700.7 256.564 702.545 262.217
C 709.71 284.175 717.174 306.042 724.524 327.941
C 727.445 336.645 730.753 345.223 733.562 353.964
C 735.766 360.824 738.267 367.594 740.532 374.436
C 742.439 380.196 743.718 385.578 741.369 391.422
C 737.79 400.325 729.426 402.22 721.236 405.261
C 717.126 406.786 712.895 407.873 708.761 409.304
C 695.232 413.988 681.617 418.413 668.117 423.174
C 663.272 424.883 658.412 426.601 653.537 428.221
C 652.214 428.661 649.007 429.162 648.2 430.312
C 650.551 431.794 653.304 432.818 655.802 434.053
C 659.926 436.092 663.961 438.289 668.008 440.476
C 677.196 445.443 686.129 451.586 696.294 454.338
C 701.578 455.769 707.024 455.995 712.384 456.96
C 721.88 458.669 731.622 459.357 741.188 460.619
C 765.681 463.848 790.273 467.493 814.127 474.065
C 830.95 478.699 847.362 484.684 861.931 494.504
C 874.184 502.763 883.545 515.949 885.101 530.857
C 885.539 535.053 885.397 539.327 885.188 543.534
C 885.085 545.598 884.54 547.991 884.936 550.03
C 885.509 552.983 888.701 555.257 890.187 557.749
C 893.102 562.635 892.17 570.024 889.3 574.789
C 886.909 578.761 881.68 578.806 877.575 579.136
C 866.592 580.02 855.524 579.625 844.514 579.73
C 841.514 579.759 838.504 579.688 835.506 579.817
C 834.427 579.864 832.638 580.479 831.641 580.049
C 831.465 579.974 831.935 579.804 832.096 579.7
C 832.552 579.407 832.561 579.312 833.046 579.138
C 834.122 578.751 835.347 578.791 836.465 578.637
C 839.64 578.198 842.786 577.224 845.955 576.675
C 855.553 575.012 865.209 573.301 874.715 571.158
C 877.95 570.429 882.98 569.51 882.627 565.195
C 882.515 563.824 882.523 562.121 881.781 560.928
C 880.204 558.397 876.759 556.076 876.081 553.108
C 875.503 550.578 875.962 547.385 876.057 544.803
C 876.221 540.366 876.217 535.929 875.971 531.498
C 875.843 529.212 876.293 525.058 874.154 523.597
C 872.645 522.565 870.322 522.748 868.567 522.563
C 864.574 522.142 860.522 521.726 856.554 521.123
C 849.897 520.111 842.973 519.647 836.591 517.362
C 827.454 514.091 817.827 504.906 814.977 495.583
C 814.374 493.612 813.355 492.336 813.201 490.192
C 815.142 489.134 818.141 489.679 820.29 489.8
C 825.99 490.119 831.748 490.68 837.429 491.241
C 837.439 491.076 835.775 490.484 835.565 490.407
C 833.594 489.687 831.573 489.142 829.581 488.481
C 821.114 485.674 812.635 483.306 803.947 481.263
C 779.252 475.458 753.732 472.36 728.616 469.003
C 716.38 467.367 703.578 466.528 691.73 462.932
C 681.385 459.792 671.788 453.851 662.425 448.577
C 652.937 443.232 643.288 438.226 633.45 433.557
C 603.008 419.108 570.517 408.287 536.978 403.999
C 492.547 398.32 446.353 401.9 402.866 412.179
C 392.75 414.57 382.464 416.807 372.534 419.903
C 358.179 424.379 343.849 428.903 329.587 433.669
C 311.744 439.631 294.044 445.762 275.81 450.461
C 260.662 454.364 245.495 456.169 229.982 457.558
C 223.756 458.116 217.275 458.187 211.026 458.138
C 208.037 458.115 204.913 457.552 201.95 458.074
C 204.016 462.559 206.42 467.581 205.54 472.613
C 205.305 473.955 204.946 476.313 203.713 477.153
C 200.935 479.045 195.917 479.113 192.676 479.204
C 193.514 475.64 196.283 472.848 195.916 468.987
C 195.602 465.687 192.941 462.591 191.528 459.668
C 189.822 456.14 189.223 452.534 188.735 448.705 Z
M 408.428 346.592
C 407.476 352.239 410.404 358.44 412.188 363.679
C 414.658 370.93 417.104 378.18 419.577 385.43
C 420.997 389.596 422.798 393.851 423.686 398.168
C 424.064 398.485 424.784 398.122 425.261 398.028
C 426.951 397.692 428.635 397.344 430.327 397.021
C 434.645 396.198 439.029 395.7 443.398 395.253
C 445.106 395.079 447.007 394.586 448.72 394.728
C 448.664 393.643 447.537 391.871 447.125 390.83
C 446.071 388.17 445.255 385.402 444.357 382.687
C 442.708 377.705 440.785 372.823 439.156 367.834
C 437.463 362.649 436.074 357.27 433.907 352.257
C 439.006 350.898 444.045 349.311 449.081 347.766
C 450.321 352.859 452.534 357.782 454.193 362.756
C 456.576 369.898 458.726 377.337 461.555 384.287
C 470.049 381.14 479.074 379.642 487.634 376.74
C 488.2 377.181 488.601 379.048 488.975 379.792
C 490.1 382.03 491.033 384.405 492.331 386.546
C 492.909 387.5 493.913 388.49 493.725 389.68
C 492.344 390.927 489.629 390.465 488.574 392.007
C 490.185 392.413 492.319 391.835 494.005 391.79
C 497.831 391.69 501.675 391.709 505.502 391.782
C 517.538 392.011 529.715 392.88 541.631 394.579
C 547.145 395.365 552.626 396.523 558.076 397.66
C 559.85 398.03 562.679 399.589 564.423 399.156
C 566.45 398.653 568.461 397.439 570.478 396.784
C 576.545 394.812 582.558 392.662 588.63 390.702
C 611.471 383.329 634.004 375.103 656.763 367.499
C 663.982 365.087 671.104 362.389 678.366 360.1
C 680.741 359.352 683.02 358.253 685.467 357.75
C 686.036 359.086 686.099 360.58 686.619 361.933
C 687.1 363.185 688.018 364.212 688.486 365.468
C 687.978 365.99 686.873 366.193 686.188 366.416
C 684.282 367.037 682.376 367.656 680.473 368.282
C 674.114 370.376 667.709 372.487 661.425 374.803
C 644.845 380.913 628.007 386.347 611.319 392.155
C 601.146 395.695 590.335 398.46 580.642 403.157
C 580.64 403.877 581.967 403.783 582.559 403.888
C 584.502 404.233 586.481 404.929 588.392 405.443
C 597.157 407.799 605.496 410.805 613.98 413.975
C 616.132 414.78 619.165 417.22 621.458 417.166
C 623.315 417.123 625.476 415.491 627.258 414.911
C 632.335 413.26 637.372 411.489 642.449 409.841
C 661.016 403.814 679.291 396.906 697.853 390.854
C 705.652 388.312 716.618 386.328 717.649 376.418
C 717.795 375.014 717.743 373.531 717.487 372.141
C 716.677 367.756 715.032 363.606 713.593 359.409
C 711.491 353.278 709.501 347.104 707.435 340.961
C 700.915 321.574 694.127 302.279 687.696 282.861
C 685.651 276.687 683.427 270.566 681.317 264.413
C 679.772 259.907 678.169 255.231 673.545 253.104
C 666.694 249.954 660.162 253.109 653.679 255.568
C 641.351 260.245 628.65 263.997 616.272 268.552
C 576.594 283.155 536.181 295.883 496.281 309.875
C 485.819 313.543 475.183 316.753 464.796 320.634
C 451.785 325.495 438.461 329.591 425.326 334.104
C 421.081 335.562 415.084 336.911 411.773 340.063
C 410.042 341.71 409.112 344.368 408.428 346.592 Z
M 817.815 494.002
C 817.851 494.627 818.739 495.36 819.169 495.814
C 820.532 497.253 821.684 498.937 822.895 500.505
C 827.282 506.188 833.935 511.155 840.835 513.23
C 844.591 514.359 848.723 514.577 852.623 514.751
C 856.432 514.92 860.22 515.299 864.036 515.421
C 865.384 515.465 866.741 515.542 868.09 515.621
C 868.159 515.625 869.288 515.741 869.279 515.631
C 867.982 514.583 867.106 512.955 865.893 511.783
C 862.763 508.758 859.38 506.122 855.494 504.147
C 847.76 500.216 838.949 498.078 830.466 496.486
C 826.27 495.699 821.885 495.268 817.815 494.002 Z"
opacity="1" fill="rgb(54,122,180)" fill-rule="evenodd" />
<path d="
M 241.791 753.468
C 244.418 748.826 247.236 744.255 249.955 739.667
C 251.208 740.152 252.014 741.285 253.107 742.036
C 255.242 743.504 257.471 744.802 259.805 745.93
C 267.43 749.615 276.409 751.013 284.8 750.354
C 290.488 749.908 297.76 745.854 294.89 739.067
C 294.477 738.089 293.854 737.207 293.095 736.467
C 289.561 733.022 283.534 731.873 278.867 730.856
C 267.923 728.47 252.176 725.804 247.291 714.107
C 243.546 705.139 245.535 694.074 252.212 687.022
C 255.554 683.493 260.195 681.114 264.776 679.651
C 280.561 674.609 300.13 678.379 313.876 687.154
C 313.66 688.63 312.314 690.268 311.643 691.611
C 309.788 695.329 307.979 699.066 306.17 702.804
C 305.654 703.241 304.227 702.034 303.723 701.726
C 301.332 700.266 298.821 698.885 296.203 697.877
C 290.426 695.653 284.279 694.08 278.05 694.084
C 275.046 694.086 271.937 694.403 269.283 695.91
C 265.727 697.928 263.537 702.571 266.132 706.275
C 267.406 708.093 269.669 709.155 271.665 709.995
C 274.023 710.988 276.648 711.509 279.119 712.152
C 291.747 715.438 308.553 717.67 313.983 731.488
C 314.899 733.819 315.287 736.206 315.438 738.701
C 315.623 741.743 315.357 744.846 314.452 747.767
C 311.388 757.655 301.991 763.072 292.514 765.421
C 280.327 768.442 266.709 767.081 255.149 762.281
C 250.31 760.272 246.089 757.44 241.722 754.614
C 241.52 753.821 241.489 754.202 241.791 753.468 Z"
opacity="1" fill="rgb(60,127,185)" fill-rule="evenodd" />
<path d="
M 267.468 561.6
C 268.676 554.231 270.516 546.978 274.427 540.512
C 282.688 526.852 298.753 517.022 314.99 518.053
C 314.801 518.775 313.15 518.745 312.535 518.886
C 310.041 519.456 307.734 520.315 305.347 521.225
C 297.933 524.054 291.504 529.163 286.666 535.414
C 275.23 550.187 274.12 571.91 282.467 588.389
C 289.168 601.618 302.309 611.919 317.011 614.455
C 326.559 616.101 336.274 614.685 344.956 610.381
C 347.691 609.025 350.355 607.481 352.709 605.532
C 353.19 605.133 354.86 603.38 355.427 603.707
C 354.387 606.883 349.834 609.625 347.241 611.477
C 337.615 618.35 324.735 621.096 313.078 619.973
C 284.551 617.226 263.866 589.781 267.468 561.6 Z"
opacity="1" fill="rgb(53,119,174)" fill-rule="evenodd" />
<path d="
M 285.463 562.107
C 286.381 556.146 287.615 550.193 290.656 544.901
C 297.433 533.108 310.92 525.849 324.52 526.531
C 328.343 526.723 331.655 527.446 335.177 528.865
C 336.478 529.388 337.839 529.722 338.943 530.633
C 338.465 531.113 335.681 529.96 335.027 529.863
C 331.348 529.321 327.212 529.459 323.546 530.077
C 312.944 531.865 302.606 538.109 296.417 546.968
C 291.572 553.902 288.646 562.995 288.832 571.493
C 288.898 574.528 289.076 577.627 289.622 580.617
C 289.819 581.693 290.206 582.663 290.486 583.71
C 290.537 583.9 290.783 584.693 290.516 584.7
C 285.456 578.507 284.708 569.788 285.463 562.107 Z"
opacity="1" fill="rgb(51,110,162)" fill-rule="evenodd" />
<path d="
M 320.484 679.25
C 323.074 678.643 325.851 678.87 328.501 678.873
C 333.131 678.878 337.772 678.965 342.401 678.852
C 347.258 691.936 352.903 704.777 358.006 717.777
C 360.131 723.191 362.421 728.539 364.52 733.96
C 365.96 737.677 367.105 741.621 368.787 745.228
C 369.097 745.353 369.552 743.09 369.678 742.715
C 370.242 741.045 370.831 739.405 371.437 737.75
C 373.253 732.79 374.999 727.802 376.785 722.831
C 382.023 708.249 387.778 693.85 392.882 679.221
C 394.957 678.618 397.844 679.18 400.01 679.206
C 404.364 679.258 409.233 678.612 413.516 679.33
C 404.498 702.152 395.42 725.001 386.734 747.956
C 383.866 755.533 380.954 763.105 377.894 770.606
C 375.698 775.991 373.611 781.406 370.29 786.223
C 362.71 797.221 348.216 799.804 335.928 797.002
C 331.749 796.048 327.306 794.425 324.041 791.563
C 325.888 786.429 329.088 781.636 330.459 776.309
C 332.417 776.452 334.797 778.413 336.711 779.105
C 342.19 781.086 348.16 781.124 352.863 777.39
C 355.512 775.288 357.905 771.502 357.723 768.024
C 357.615 765.944 356.404 763.826 355.6 761.936
C 353.944 758.042 352.37 754.116 350.755 750.206
C 340.94 726.443 330.027 703.11 320.484 679.25 Z"
opacity="1" fill="rgb(60,126,185)" fill-rule="evenodd" />
<path d="
M 359.234 444.573
C 360.303 443.013 362.087 442.29 363.719 441.456
C 366.789 439.887 369.867 438.452 373.062 437.155
C 385.86 431.956 398.929 427.745 412.24 424.081
C 470.478 408.053 534.227 408.931 591.16 429.708
C 607.049 435.506 622.894 442.305 637.246 451.327
C 640.424 453.325 643.643 455.252 646.734 457.387
C 647.824 458.14 649.839 459.07 650.42 460.325
C 643.814 457.419 637.549 453.597 630.959 450.586
C 617.98 444.657 604.913 439.233 591.336 434.805
C 541.909 418.686 488.462 417.827 437.615 426.626
C 421.16 429.474 405.003 433.71 389.231 439.171
C 385.331 440.521 381.422 442.003 377.473 443.198
C 375.847 443.69 373.07 444.162 371.933 445.456
C 378.281 448.591 385.699 450.488 392.453 452.597
C 413.612 459.203 435.47 463.254 457.445 466.004
C 474.582 468.149 491.805 470.262 509.027 471.546
C 550.482 474.635 592.043 475.464 633.52 478.036
C 657.136 479.5 680.754 480.638 704.284 483.258
C 710.106 483.907 715.817 484.74 721.597 485.661
C 722.878 485.865 726.802 485.824 727.518 486.959
C 718.287 486.146 708.997 486.253 699.713 486.05
C 678.64 485.591 657.573 485.701 636.496 485.809
C 576.939 486.114 516.926 486.579 458 476.939
C 434.111 473.03 410.158 467.607 387.516 458.905
C 378.045 455.265 366.992 451.336 359.234 444.573 Z"
opacity="1" fill="rgb(53,121,176)" fill-rule="evenodd" />
<path d="
M 401.271 543.87
C 415.753 547.636 430.042 552.441 444.707 555.602
C 467.871 560.596 491.469 565.123 515.043 567.576
C 540.391 570.214 565.926 571.09 591.392 570.279
C 608.177 569.745 624.911 568.495 641.51 565.972
C 645.611 565.349 649.818 565.221 653.884 564.553
C 654.798 564.403 657.145 563.42 657.79 564.313
C 657.871 564.426 655.469 565.098 655.247 565.156
C 653.603 565.584 652.038 566.244 650.392 566.661
C 645.457 567.909 640.67 569.506 635.67 570.578
C 620.867 573.752 605.947 576.173 590.947 578.072
C 544.458 583.959 495.821 578.191 451.201 564.1
C 438.148 559.978 425.256 555.025 412.598 549.821
C 409.461 548.532 406.426 546.926 403.375 545.45
C 402.845 545.194 401.573 543.949 401.271 543.87 Z"
opacity="1" fill="rgb(55,122,177)" fill-rule="evenodd" />
<path d="
M 426.999 679.414
C 433.489 679.356 440.353 678.837 446.807 679.519
C 446.734 681.889 447.027 684.274 447.095 686.645
C 447.14 688.185 446.957 690.109 447.484 691.555
C 448.919 690.269 449.873 688.25 451.284 686.833
C 455.299 682.802 460.573 679.941 466.111 678.64
C 470.811 677.535 475.786 677.268 480.575 677.886
C 485.714 678.549 490.837 680.111 495.37 682.656
C 518.13 695.434 523.137 728.112 509.516 749.222
C 500.138 763.755 481.257 770.484 464.699 765.844
C 460.385 764.634 456.126 762.153 452.72 759.266
C 451.547 758.273 450.55 757.018 449.661 755.77
C 449.347 755.328 449.095 754.337 448.525 754.701
C 448.765 758.691 448.443 762.717 448.452 766.719
C 448.474 776.362 448.417 786.071 448.621 795.717
C 441.37 795.76 434.045 795.348 426.802 795.704
C 426.38 792.574 426.721 789.159 426.715 786
C 426.703 779.834 426.702 773.669 426.672 767.504
C 426.576 747.834 426.558 728.163 426.553 708.493
C 426.551 698.98 427.301 689.127 426.521 679.654
C 426.68 679.574 426.839 679.494 426.999 679.414 Z
M 448.444 718.105
C 447.291 726.965 449.425 737.787 456.639 743.684
C 465.672 751.067 480.162 750.389 488.181 741.648
C 491.706 737.807 493.646 732.824 494.302 727.71
C 495.502 718.353 493.615 708.402 486.37 701.807
C 478.854 694.964 465.409 694.145 457.461 700.633
C 452.113 704.999 449.317 711.389 448.444 718.105 Z"
opacity="1" fill="rgb(44,113,171)" fill-rule="evenodd" />
<path d="
M 502.752 331.447
C 513.046 328.51 523.264 324.545 533.349 320.947
C 549.592 315.151 565.992 309.687 582.319 304.133
C 588.81 301.925 595.257 299.568 601.714 297.263
C 605.414 295.942 609.388 294.246 613.252 293.567
C 613.972 294.091 614.232 295.59 614.557 296.394
C 615.298 298.229 615.745 300.17 616.414 302.031
C 616.756 302.981 617.349 303.794 617.53 304.803
C 615.698 305.789 613.519 306.21 611.558 306.884
C 605.208 309.064 598.8 311.072 592.448 313.249
C 577.799 318.27 563.188 323.378 548.476 328.209
C 538.645 331.438 528.928 335.02 519.14 338.378
C 514.951 339.815 510.492 342.033 506.053 342.477
C 505.393 340.276 504.808 338.057 504.08 335.871
C 503.627 334.509 502.757 332.878 502.752 331.447 Z"
opacity="1" fill="rgb(56,124,181)" fill-rule="evenodd" />
<path d="
M 511.806 358.455
C 533.338 351.25 554.709 343.515 576.106 335.922
C 606.622 325.094 637.412 314.981 668.103 304.686
C 668.432 306.671 669.14 308.598 669.844 310.49
C 670.116 311.222 671.022 312.45 670.84 313.216
C 669.125 313.407 667.333 314.196 665.69 314.723
C 662.665 315.691 659.625 316.544 656.625 317.592
C 648.842 320.312 641.008 322.891 633.232 325.634
C 624.459 328.728 615.505 331.296 606.724 334.346
C 589.933 340.179 573.14 346.008 556.388 351.952
C 546.28 355.538 536.162 359.049 525.98 362.428
C 523.121 363.376 520.29 364.436 517.457 365.458
C 516.532 365.792 515.073 366.61 514.097 366.409
C 513.402 363.846 512.605 361.147 511.578 358.706
C 511.654 358.622 511.73 358.539 511.806 358.455 Z"
opacity="1" fill="rgb(54,122,180)" fill-rule="evenodd" />
<path d="
M 519.711 382.837
C 521.358 381.732 523.553 381.478 525.43 380.888
C 529.182 379.707 532.953 378.52 536.667 377.228
C 549.338 372.822 561.973 368.309 574.711 364.092
C 583.814 361.079 592.787 357.667 601.835 354.493
C 615.296 349.769 628.863 345.356 642.312 340.6
C 648.194 338.52 654.155 336.713 660.064 334.72
C 665.233 332.976 670.611 330.561 675.99 329.635
C 676.629 331.589 677.372 333.53 677.951 335.511
C 678.152 336.198 678.647 337.002 678.328 337.709
C 669.308 340.261 660.467 343.515 651.608 346.573
C 639.137 350.879 626.523 354.851 614.091 359.281
C 597.954 365.03 581.846 371.061 565.556 376.353
C 554.855 379.83 544.36 384.09 533.614 387.393
C 531.343 388.091 528.994 388.625 526.788 389.514
C 525.315 390.108 523.813 391.512 522.166 391.364
C 521.41 388.498 520.418 385.72 519.711 382.837 Z"
opacity="1" fill="rgb(53,122,179)" fill-rule="evenodd" />
<path d="
M 530.467 715.591
C 532.752 704.872 536.702 695.526 545.093 688.095
C 560.963 674.039 589.209 673.658 604.512 688.731
C 611.143 695.264 615.738 704.755 616.65 714.037
C 617.139 719.006 616.574 723.947 616.81 728.907
C 615.143 729.185 613.488 728.895 611.81 728.986
C 606.496 729.275 601.089 728.949 595.763 728.944
C 580.92 728.93 565.991 728.802 551.152 729.306
C 552.433 734.077 554.74 738.715 558.218 742.285
C 565.936 750.207 579.06 750.902 588.898 747.261
C 591.42 746.327 594.102 744.953 596.177 743.227
C 597.408 742.202 598.257 740.706 599.545 739.781
C 601.957 742.785 605.14 745.453 608.058 747.959
C 609.007 748.775 611.572 750.192 611.968 751.366
C 610.967 753.182 608.918 754.692 607.391 756.067
C 602.221 760.723 595.744 763.519 589.148 765.474
C 573.546 770.096 554.521 765.861 542.802 754.485
C 532.779 744.756 528.419 729.252 530.467 715.591 Z
M 551.415 713.573
C 551.302 714.302 551.239 715.037 551.135 715.768
C 566.345 715.937 581.73 716.227 596.934 715.741
C 597.337 714.037 596.035 711.598 595.572 709.972
C 593.348 702.175 586.377 695.962 578.252 695.2
C 569.601 694.39 560.776 697.038 555.523 704.385
C 553.474 707.251 552.457 710.276 551.415 713.573 Z"
opacity="1" fill="rgb(44,114,171)" fill-rule="evenodd" />
<path d="
M 635.743 679.314
C 640.661 679.297 645.584 679.285 650.505 679.279
C 652.107 679.277 655.221 678.625 656.603 679.313
C 656.553 684.207 656.12 689.171 656.573 694.063
C 657.091 694.102 658.08 691.914 658.316 691.502
C 659.811 688.89 662.035 686.554 664.297 684.586
C 669.959 679.661 678.494 676.605 686.055 677.723
C 685.655 684.307 686.139 691.197 686.162 697.812
C 684.209 698.449 681.36 697.965 679.263 698.285
C 674.434 699.021 669.72 700.883 665.903 703.961
C 662.321 706.849 658.94 711.059 657.589 715.531
C 656.768 718.25 656.952 721.371 656.933 724.18
C 656.901 728.789 656.91 733.399 656.916 738.008
C 656.928 747.051 656.307 756.335 656.849 765.347
C 650.022 764.82 642.791 765.207 635.943 765.414
C 635.112 764.179 635.705 761.014 635.688 759.506
C 635.627 754.006 635.633 748.505 635.609 743.005
C 635.547 728.837 635.584 714.668 635.643 700.501
C 635.672 693.561 634.986 686.203 635.743 679.314 Z"
opacity="1" fill="rgb(44,114,172)" fill-rule="evenodd" />
<path d="
M 682.894 540.579
C 684.308 538.684 685.066 536.412 686.408 534.475
C 689.967 529.338 694.312 524.687 698.929 520.493
C 718.18 503.008 745.881 496.492 770.421 506.132
C 792.397 514.763 806.011 534.084 810.119 556.923
C 811.166 562.742 811.84 568.793 810.58 574.618
C 810.237 576.205 810.128 578.346 809.113 579.668
C 808.013 577.561 808.78 573.707 808.466 571.32
C 807.639 565.039 806.65 558.988 804.464 553.009
C 795.377 528.155 771.585 512.292 745.501 510.981
C 729.053 510.154 713.631 516.191 700.359 525.528
C 695.962 528.621 692.084 532.191 688.26 535.958
C 686.896 537.302 685.503 538.617 684.298 540.108
C 683.949 540.539 682.801 541.904 682.894 540.579 Z"
opacity="1" fill="rgb(53,119,173)" fill-rule="evenodd" />
<path d="
M 695.929 561.093
C 697.36 554.179 698.875 547.724 702.446 541.522
C 710.667 527.244 725.977 518.939 742.085 517.515
C 741.706 518.269 740.64 518.469 739.93 518.84
C 738.425 519.627 736.861 520.161 735.34 520.918
C 729.989 523.582 725.035 525.984 720.743 530.308
C 714.917 536.177 710.54 543.227 708.034 551.128
C 702.857 567.453 707.878 586.208 718.835 598.966
C 729.572 611.467 747.396 616.892 763.399 614.028
C 768.781 613.065 774.001 610.88 778.657 608.046
C 780.28 607.058 781.763 605.911 783.222 604.7
C 783.661 604.335 783.982 604.227 784.522 604.058
C 784.841 603.958 785.566 603.274 785.391 603.559
C 780.303 611.839 769.541 616.275 760.552 618.435
C 742.13 622.861 721.823 617.073 709.054 602.831
C 703.345 596.464 699.859 588.808 697.501 580.68
C 695.693 574.447 694.998 567.545 695.929 561.093 Z"
opacity="1" fill="rgb(51,118,174)" fill-rule="evenodd" />
<path d="
M 702.944 680.603
C 703.052 679.967 703.024 680.356 702.904 679.434
C 707.822 678.609 713.509 679.298 718.509 679.288
C 719.492 679.286 722.768 678.724 723.427 679.369
C 723.067 683.271 723.652 687.221 723.496 691.127
C 723.456 691.796 724.721 689.768 724.861 689.549
C 725.771 688.132 727.004 686.898 728.199 685.716
C 731.838 682.117 736.318 679.704 741.246 678.367
C 754.287 674.831 773.253 678.935 778.63 692.879
C 779.342 692.722 779.841 691.086 780.187 690.517
C 781.346 688.612 782.863 686.951 784.485 685.433
C 789.015 681.191 794.953 678.573 801.043 677.507
C 805.653 676.699 810.4 676.755 815.013 677.452
C 818.165 677.928 821.413 678.964 824.223 680.464
C 826.676 681.774 829.015 683.324 831.047 685.232
C 840.282 693.901 840.723 706.286 840.751 718.073
C 840.764 723.716 840.774 729.359 840.772 735.003
C 840.77 740.003 840.769 745.003 840.764 750.004
C 840.761 753.504 840.756 757.004 840.75 760.504
C 840.747 762.016 840.48 763.765 840.768 765.245
C 833.749 765.035 826.427 764.829 819.421 765.331
C 818.938 760.988 819.371 756.369 819.379 751.999
C 819.397 743.165 819.447 734.331 819.457 725.496
C 819.463 719.74 820.365 713.16 818.233 707.682
C 814.334 697.662 801.866 693.935 792.591 698.975
C 789.281 700.773 786.985 703.729 785.264 707.012
C 782.091 713.064 782.776 720.386 782.767 727.002
C 782.752 739.695 783.452 752.585 782.737 765.254
C 775.742 765.077 768.445 764.84 761.469 765.381
C 761.174 764.006 761.422 762.404 761.425 760.997
C 761.432 757.997 761.403 754.997 761.406 751.998
C 761.413 742.716 761.394 733.433 761.395 724.151
C 761.396 718.282 761.859 711.984 759.285 706.555
C 754.684 696.847 742.358 693.876 733.407 699.86
C 729.61 702.397 727.013 706.348 725.684 710.666
C 724.078 715.878 724.434 721.751 724.431 727.137
C 724.427 735.261 724.419 743.386 724.437 751.51
C 724.444 754.78 724.401 758.048 724.384 761.317
C 724.378 762.439 724.781 764.203 724.39 765.241
C 717.187 765.215 709.975 765.201 702.774 765.231
C 702.401 761.384 702.692 757.367 702.707 753.502
C 702.734 746.502 702.732 739.502 702.731 732.503
C 702.727 715.245 702.218 697.845 702.944 680.603 Z"
opacity="1" fill="rgb(44,114,173)" fill-rule="evenodd" />
<path d="
M 714.49 565.619
C 714.745 563.447 714.617 561.234 714.949 559.063
C 715.856 553.113 718.042 546.869 721.49 541.909
C 728.192 532.268 739.935 527.24 751.37 526.788
C 756.114 526.601 759.942 527.535 764.27 529.375
C 765.553 529.921 766.9 530.272 768.024 531.134
C 766.537 531.601 764.22 530.224 762.689 530.033
C 759.019 529.575 755.205 529.697 751.558 530.285
C 735.419 532.884 722.591 545.889 719.068 561.608
C 717.949 566.601 717.924 571.669 718.378 576.744
C 718.514 578.256 718.751 579.797 719.201 581.247
C 719.41 581.92 719.874 582.896 719.553 583.574
C 718.233 582.8 717.45 580.913 716.844 579.564
C 714.942 575.328 714.303 570.233 714.49 565.619 Z"
opacity="1" fill="rgb(53,114,165)" fill-rule="evenodd" />
<path d="
M 863.948 651.087
C 866.19 640.532 880.171 638.007 886.509 646.52
C 888.802 649.6 889.408 653.703 888.621 657.409
C 886.992 665.077 878.177 669.319 871.118 666.025
C 865.541 663.422 862.679 657.06 863.948 651.087 Z"
opacity="1" fill="rgb(46,115,173)" fill-rule="evenodd" />
<path d="
M 865.647 679.2
C 870.903 678.935 876.237 679.084 881.504 679.071
C 882.502 679.069 886.192 678.494 886.721 679.231
C 886.075 697.931 886.818 716.785 886.802 735.502
C 886.796 742.168 886.8 748.835 886.791 755.501
C 886.787 758.551 886.199 762.226 886.795 765.208
C 882.049 765.424 877.25 765.201 872.498 765.191
C 870.427 765.186 867.66 765.721 865.698 765.114
C 866.079 746.925 865.775 728.695 865.749 710.502
C 865.734 700.165 866.526 689.496 865.647 679.2 Z"
opacity="1" fill="rgb(44,114,173)" fill-rule="evenodd" />
<path d="
M 904.416 753.524
C 907.15 748.979 909.811 744.416 912.006 739.576
C 913.796 740.075 915.518 741.828 917.108 742.802
C 920.748 745.032 924.551 746.859 928.655 748.072
C 935.599 750.126 944.194 751.864 951.163 749.008
C 956.452 746.84 959.49 740.815 954.533 736.353
C 950.79 732.984 945.249 732.366 940.529 731.274
C 928.12 728.403 911.7 724.918 908.288 710.493
C 905.198 697.426 912.737 685.132 924.929 680.488
C 937.265 675.789 951.971 676.955 964.114 681.788
C 967.624 683.186 972.087 684.862 974.933 687.418
C 972.845 692.471 970.046 697.343 967.721 702.306
C 967.176 702.534 966.068 701.694 965.555 701.435
C 963.448 700.371 961.47 699.281 959.265 698.418
C 952.246 695.672 943.73 693.201 936.133 694.611
C 932.695 695.25 928.496 697.253 927.599 700.94
C 925.623 709.057 935.794 711.164 941.497 712.511
C 942.734 712.803 943.949 713.172 945.183 713.473
C 956.802 716.306 970.744 718.935 975.882 731.273
C 976.627 733.063 977.058 735.018 977.276 736.937
C 977.548 739.334 977.536 741.967 977.082 744.341
C 976.649 746.613 975.943 748.774 974.914 750.845
C 966.594 767.602 943.009 768.761 927.105 765.139
C 923.645 764.351 920.306 763.161 916.998 761.894
C 912.258 760.079 908.592 756.855 904.246 754.44
C 904.146 753.783 904.086 754.088 904.416 753.524 Z"
opacity="1" fill="rgb(44,114,172)" fill-rule="evenodd" />

</svg>